# xmcd
#
# Track frame offsets: 
#        150
#        15447
#        37322
#        55635
#        81584
#        99465
#        126019
#        144266
#        156585
#        174242
#        195753
#        214176
#        230919
#        249001
#        262668
#        285448
#
# Disc length: 4015 seconds
#
# Revision: 0
# Processed by: cddbd v1.5.2PL0 Copyright (c) Steve Scherf et al.
# Submitted via: ExactAudioCopy v1.3
#
DISCID=cf0fad10
DTITLE=Bob Seeley, Lluís Coloma - International Boogie Woogie Explosio
DTITLE=n
DYEAR=2012
DGENRE=Blues
TTITLE0=Sixth Avenue Express
TTITLE1=Suitcase Blues
TTITLE2=Bumble Boogie
TTITLE3=Yancey Special
TTITLE4=Boogie Woogi Dream
TTITLE5=Taboo
TTITLE6=Strange Cargo
TTITLE7=The Honeydripper
TTITLE8=Cuttin' The Boogie
TTITLE9=Lux's Boogie
TTITLE10=Black and Blue
TTITLE11=The Fives
TTITLE12=Oh Lady Be Good
TTITLE13=Honky Tonk Train Blues
TTITLE14=Chicago Flyer
TTITLE15=Yesterdays
EXTD=
EXTT0=
EXTT1=
EXTT2=
EXTT3=
EXTT4=
EXTT5=
EXTT6=
EXTT7=
EXTT8=
EXTT9=
EXTT10=
EXTT11=
EXTT12=
EXTT13=
EXTT14=
EXTT15=
PLAYORDER=
